<svg xmlns="http://www.w3.org/2000/svg" viewBox="0 0 164.5 238.92"><defs><style>.cls-1{fill:#33b5e5;}</style></defs><title>Asset 24</title><g id="Layer_2" data-name="Layer 2"><g id="Layer_8" data-name="Layer 8"><polygon class="cls-1" points="141 236.17 116.75 236.17 113.25 232.67 147.94 232.67 153.34 227.26 153.34 177.99 155.5 175.83 155.5 225.1 157.06 223.55 157.34 155.57 161 151.92 161 219.6 162.5 218.1 162.5 211.42 164.5 213.42 164.5 235.92 161.94 238.48 143.31 238.48 141 236.17"/><polygon class="cls-1" points="157.42 116.5 161 112.92 161 118.92 157.42 122.5 157.42 116.5"/><polygon class="cls-1" points="157.42 107.5 161 103.92 161 109.92 157.42 113.5 157.42 107.5"/><polygon class="cls-1" points="157.42 98.5 161 94.92 161 100.92 157.42 104.5 157.42 98.5"/><polygon class="cls-1" points="157.42 28.5 137 8.08 114.92 8.08 110.75 3.92 143 3.92 164 24.92 164 52.92 161 55.92 161 91.92 157.42 95.5 157.42 28.5"/><polygon class="cls-1" points="123.77 13.02 120.25 9.5 135.67 9.5 139.19 13.02 123.77 13.02"/><polygon class="cls-1" points="3 8.92 2 9.92 2 20.92 0 18.92 0 7.92 7.92 0 11.08 0 15 3.92 41 3.92 36.83 8.08 32 8.08 30.17 9.92 13 9.92 8 14.92 8 25.92 6.75 27.17 6.75 70.42 3 74.17 3 8.92"/><polygon class="cls-1" points="3 229.92 3 195.92 6.75 199.67 6.75 212.92 8.25 214.42 8.25 220.92 16.13 228.79 48.13 228.79 52 232.67 69.25 232.67 65.75 236.17 41 236.17 38.25 238.92 12 238.92 3 229.92"/><polygon class="cls-1" points="15.72 2.85 12.88 0 17 0 19.83 2.85 15.72 2.85"/></g></g></svg>