<svg xmlns="http://www.w3.org/2000/svg" viewBox="0 0 114 39.73"><defs><style>.cls-1{fill:#33b5e5;}</style></defs><title>Asset 22</title><g id="Layer_2" data-name="Layer 2"><g id="Layer_7" data-name="Layer 7"><polygon class="cls-1" points="31 36 33 36 35 34 33 34 31 36"/><polygon class="cls-1" points="28 36 30 36 32 34 30 34 28 36"/><polygon class="cls-1" points="25 36 27 36 29 34 27 34 25 36"/><polygon class="cls-1" points="22 36 24 36 26 34 24 34 22 36"/><polygon class="cls-1" points="19 36 21 36 23 34 21 34 19 36"/><polygon class="cls-1" points="16 36 18 36 20 34 18 34 16 36"/><polygon class="cls-1" points="13 36 15 36 17 34 15 34 13 36"/><polygon class="cls-1" points="10 36 12 36 14 34 12 34 10 36"/><polygon class="cls-1" points="7 36 9 36 11 34 9 34 7 36"/><polygon class="cls-1" points="4.5 35.5 5 36 6 36 8 34 6 34 4.5 35.5"/><polygon class="cls-1" points="5 32 3 34 4 35 5.5 33.5 5 33 5 32"/><polygon class="cls-1" points="3 31 3 33 5 31 5 29 3 31"/><polygon class="cls-1" points="70.5 4 43 4 39 0 30 0 26 4 20 4 17 1 5 1 0 6 0 18 3 21 3 27 5 25 5 9 8 6 72.5 6 70.5 4"/><polygon class="cls-1" points="3 28 3 30 5 28 5 26 3 28"/><polygon class="cls-1" points="112 25 112 18 109 15 109 29 104 34 36 34 34 36 103 36 102 37 94 37 96.73 39.73 105.27 39.73 113 32 113 32.73 109.73 36 112 36 114 34 114 27 112 25"/></g></g></svg>