<svg xmlns="http://www.w3.org/2000/svg" viewBox="0 0 105.18 101"><defs><style>.cls-1{fill:#33b5e5;}</style></defs><title>Asset 19</title><g id="Layer_2" data-name="Layer 2"><g id="Layer_5" data-name="Layer 5"><polygon class="cls-1" points="6.09 19.36 2.88 22.56 2.9 26.09 6.09 22.9 6.09 19.36"/><polygon class="cls-1" points="5.96 25.69 2.9 28.75 2.92 33.02 5.96 29.98 5.96 25.69"/><polygon class="cls-1" points="5.96 15.36 2.87 18.44 2.88 20.8 5.96 17.72 5.96 15.36"/><path class="cls-1" d="M98.69,75.7V88.23L96.91,90V77.47l-1.4,1.41L95.46,91l-4,4-75.29.08L6,84.92V35.73l-3,3L3,62.61,1.23,60.84V40.46L0,41.69V82.54H0L18.46,101h8.17l2.58-2.58H95.14L100.59,93V73.8ZM3,81.51,1.23,79.74V73.83L3,75.6Zm0-9.45L1.23,70.29V64.38L3,66.15Z"/><polygon class="cls-1" points="101.76 32.12 101.76 21.3 105.18 17.88 105.18 11.6 93.58 0 78.61 0 77.64 0.96 92.41 0.96 97.5 6.05 96.18 6.05 92.19 2.07 13.04 2.07 2.85 12.26 2.87 17.26 15.41 4.72 91.99 4.72 99.97 12.7 99.97 33.91 101.76 32.12"/></g></g></svg>