<svg xmlns="http://www.w3.org/2000/svg" viewBox="0 0 238.92 164.5"><defs><style>.cls-1{fill:#33b5e5;}</style></defs><title>Asset 25</title><g id="Layer_2" data-name="Layer 2"><g id="Layer_8_copy" data-name="Layer 8 copy"><polygon class="cls-1" points="236.17 141 236.17 116.75 232.67 113.25 232.67 147.94 227.26 153.34 177.99 153.34 175.83 155.5 225.1 155.5 223.55 157.06 155.57 157.34 151.92 161 219.6 161 218.1 162.5 211.42 162.5 213.42 164.5 235.92 164.5 238.48 161.94 238.48 143.31 236.17 141"/><polygon class="cls-1" points="116.5 157.42 112.92 161 118.92 161 122.5 157.42 116.5 157.42"/><polygon class="cls-1" points="107.5 157.42 103.92 161 109.92 161 113.5 157.42 107.5 157.42"/><polygon class="cls-1" points="98.5 157.42 94.92 161 100.92 161 104.5 157.42 98.5 157.42"/><polygon class="cls-1" points="28.5 157.42 8.08 137 8.08 114.92 3.92 110.75 3.92 143 24.92 164 52.92 164 55.92 161 91.92 161 95.5 157.42 28.5 157.42"/><polygon class="cls-1" points="13.02 123.77 9.5 120.25 9.5 135.67 13.02 139.19 13.02 123.77"/><polygon class="cls-1" points="8.92 3 9.92 2 20.92 2 18.92 0 7.92 0 0 7.92 0 11.08 3.92 15 3.92 41 8.08 36.83 8.08 32 9.92 30.17 9.92 13 14.92 8 25.92 8 27.17 6.75 70.42 6.75 74.17 3 8.92 3"/><polygon class="cls-1" points="229.92 3 195.92 3 199.67 6.75 212.92 6.75 214.42 8.25 220.92 8.25 228.79 16.13 228.79 48.13 232.67 52 232.67 69.25 236.17 65.75 236.17 41 238.92 38.25 238.92 12 229.92 3"/><polygon class="cls-1" points="2.85 15.72 0 12.88 0 17 2.85 19.83 2.85 15.72"/></g></g></svg>