<svg xmlns="http://www.w3.org/2000/svg" viewBox="0 0 106.55 197.34"><defs><style>.cls-1{fill:#33b5e5;}</style></defs><title>Asset 27</title><g id="Layer_2" data-name="Layer 2"><g id="Layer_3_copy" data-name="Layer 3 copy"><polygon class="cls-1" points="103.66 29 105.66 27 105.66 29 103.66 31 103.66 29"/><polygon class="cls-1" points="103.66 33 105.66 31 105.66 33 103.66 35 103.66 33"/><polygon class="cls-1" points="105.66 35 105.66 37 103.66 39 103.66 37 105.66 35"/><polygon class="cls-1" points="7.18 126.52 2.38 121.72 2.38 119.72 7.18 124.52 7.18 126.52"/><polygon class="cls-1" points="7.18 122.52 2.38 117.72 2.38 115.72 7.18 120.52 7.18 122.52"/><polygon class="cls-1" points="105.66 13.53 105.66 25 103.66 27 103.66 19 101.66 17 101.66 29 101.66 35 101.66 117 103.66 119 103.66 149 106.56 151.9 106.56 183.25 92.47 197.34 69.38 197.34 65.29 193.25 29.06 193.41 10.84 193.41 0 182.58 0 172.63 1.38 171.25 1.38 176.25 2.38 177.25 2.38 170.25 2.38 168.79 2.38 123.72 7.18 128.52 7.18 181.45 8.73 183 12.61 186.89 14.19 188.47 25.66 188.47 28.24 191.04 90.41 191 99.78 181.63 99.78 115.3 99.66 115 99.78 115.13 99.78 45.88 97.45 43.55 97.45 14.17 89.45 6.17 70.14 6.17 68.75 4.78 24.16 4.78 4.71 24.25 4.71 111.91 7.18 114.38 7.18 118.52 2.38 113.72 2.38 21.78 21.66 2.5 63.16 2.5 65.66 0 92.13 0 105.66 13.53"/></g></g></svg>