<svg xmlns="http://www.w3.org/2000/svg" viewBox="0 0 105.73 101"><defs><style>.cls-1{fill:#33b5e5;}</style></defs><title>Asset 3</title><g id="Layer_2" data-name="Layer 2"><g id="Layer_5" data-name="Layer 5"><polygon class="cls-1" points="6.63 19.36 3.43 22.56 3.44 26.09 6.63 22.9 6.63 19.36"/><polygon class="cls-1" points="6.5 25.69 3.44 28.75 3.46 33.02 6.5 29.98 6.5 25.69"/><polygon class="cls-1" points="6.5 15.36 3.41 18.44 3.42 20.8 6.5 17.72 6.5 15.36"/><polygon class="cls-1" points="95.09 0 79.15 0 78.19 0.96 92.95 0.96 98.05 6.05 96.72 6.05 92.73 2.07 13.59 2.07 3.4 12.26 3.41 17.26 15.95 4.72 92.53 4.72 100.51 12.7 100.51 33.91 102.77 31.65 102.77 27.76 105.72 24.81 105.72 10.63 95.09 0"/><path class="cls-1" d="M99.23,75.7v8.76l-1.77,1.77V77.47L95.73,79.2V88l-7.08,7.08H16.81L6.5,84.92V35.73l-3,3,.07,23.85L1.77,60.84V40.46L0,42.19l0,0V82l19,19h8.17l2.58-2.58H95.68l7.09-7.09V72.16ZM3.54,81.51,1.77,79.74V73.83L3.54,75.6Zm0-9.45L1.77,70.29V64.38l1.77,1.77Z"/></g></g></svg>