<svg xmlns="http://www.w3.org/2000/svg" viewBox="0 0 210.75 117"><defs><style>.cls-1{fill:#33b5e5;}</style></defs><title>Asset 1</title><g id="Layer_2" data-name="Layer 2"><g id="Layer_4" data-name="Layer 4"><polygon class="cls-1" points="160.25 117 189.25 117 191.25 115 158.25 115 160.25 117"/><polygon class="cls-1" points="7.25 38 7.25 33.5 4.25 36.5 4.25 41 7.25 38"/><polygon class="cls-1" points="4.25 33 7.25 30 7.25 25.5 4.25 28.5 4.25 33"/><polygon class="cls-1" points="29.25 8 33.88 3.38 29.38 3.38 24.75 8 29.25 8"/><path class="cls-1" d="M210.75,52V8.5L202.25,0h-51l-3.37,3.38H45.38L40.75,8h115l1.5,1.5h38.5l3.5,3.5V39l3,3V78l-17.5,17.5h17l-1.5,1.5h-17l-1.5,1.5h17l-3.5,3.5h-17l-2,2h-161l-8-8V41.5l-3,3V71.75L0,76V96.75L12.75,109.5h34l2.5-2.5h101l7,7h35l18.5-18.5v-19l-4.5-4.5V56.5ZM204.5,4h0Z"/><polygon class="cls-1" points="37.25 8 41.88 3.38 37.38 3.38 32.75 8 37.25 8"/><polygon class="cls-1" points="7.25 14 13.25 8 21.25 8 25.88 3.38 12.88 3.38 4.31 11.94 4.25 12 4.25 25 7.25 22 7.25 14"/></g></g></svg>