<svg xmlns="http://www.w3.org/2000/svg" viewBox="0 0 199 109.13"><defs><style>.cls-1{fill:#33b5e5;}</style></defs><title>Asset 1</title><g id="Layer_2" data-name="Layer 2"><g id="Layer_3" data-name="Layer 3"><polygon class="cls-1" points="70.93 98.93 78.25 106.25 80.25 106.25 72.93 98.93 70.93 98.93"/><polygon class="cls-1" points="188 2 174 2 172 4 180 4 182 6 170 6 164 6 82 6 80 4 50 4 46 0 18 0 0 18 0 36 5.75 41.75 5.5 70 3.44 72 3.44 100.56 12 109.13 27.13 109.13 30 106.25 74.25 106.25 76.25 106.25 68.93 98.93 66.93 98.93 16 98.93 10.54 93.47 10.54 82 7.96 79.42 8 17.25 17.38 7.88 83.7 7.88 84 8 83.88 7.88 153.13 7.88 156.63 11.38 186 11.38 191.31 16.69 191.31 36 194.22 38.91 194.22 83.5 175.86 101.86 86 101.86 83.07 98.93 78.93 98.93 86.25 106.25 176.25 106.25 196.5 86 196.5 44.5 199 42 199 13 188 2"/><polygon class="cls-1" points="74.93 98.93 82.25 106.25 84.25 106.25 76.93 98.93 74.93 98.93"/><polygon class="cls-1" points="170 4 172 2 170 2 168 4 170 4"/><polygon class="cls-1" points="166 4 168 2 166 2 164 4 166 4"/><polygon class="cls-1" points="164 2 162 2 160 4 162 4 164 2"/></g></g></svg>