<svg xmlns="http://www.w3.org/2000/svg" viewBox="0 0 177 45.5"><defs><style>.cls-1{fill:#33b5e5;}</style></defs><title>Asset 23</title><g id="Layer_2" data-name="Layer 2"><g id="Layer_9" data-name="Layer 9"><line class="cls-1" x1="174" y1="17.33" x2="174" y2="5.79"/><polygon class="cls-1" points="174 28 174 7 171 4 103 4 106 7 168 7 171 10 171 34 166 39 127.56 39 124.56 42 135.5 42 139 45.5 174.5 45.5 177 43 177 31 174 28"/><polygon class="cls-1" points="98 39 5 39 3 37 3 21 17 7 54 7 51 4 38 4 34 0 17 0 0 17 0 40 3 43 94 43 98 39"/><polygon class="cls-1" points="103 39 99 43 108 43 112 39 103 39"/></g></g></svg>