<svg xmlns="http://www.w3.org/2000/svg" viewBox="0 0 197.34 106.55"><defs><style>.cls-1{fill:#33b5e5;}</style></defs><title>Asset 17</title><g id="Layer_2" data-name="Layer 2"><g id="Layer_3" data-name="Layer 3"><polygon class="cls-1" points="168.34 2.9 170.34 0.9 168.34 0.9 166.34 2.9 168.34 2.9"/><polygon class="cls-1" points="164.34 2.9 166.34 0.9 164.34 0.9 162.34 2.9 164.34 2.9"/><polygon class="cls-1" points="162.34 0.9 160.34 0.9 158.34 2.9 160.34 2.9 162.34 0.9"/><polygon class="cls-1" points="70.82 99.38 75.62 104.18 77.62 104.18 72.82 99.38 70.82 99.38"/><polygon class="cls-1" points="74.82 99.38 79.62 104.18 81.62 104.18 76.82 99.38 74.82 99.38"/><polygon class="cls-1" points="183.81 0.9 172.34 0.9 170.34 2.9 178.34 2.9 180.34 4.9 168.34 4.9 162.34 4.9 80.34 4.9 78.34 2.9 48.34 2.9 45.44 0 14.09 0 0 14.09 0 37.18 4.09 41.27 3.92 77.49 3.92 95.72 14.76 106.56 24.71 106.56 26.09 105.18 21.09 105.18 20.09 104.18 27.09 104.18 28.55 104.18 73.62 104.18 68.82 99.38 15.89 99.38 14.34 97.83 10.45 93.94 8.88 92.36 8.88 80.9 6.29 78.32 6.34 16.15 15.71 6.77 82.04 6.77 82.34 6.9 82.22 6.77 151.47 6.77 153.79 9.1 183.17 9.1 191.17 17.1 191.17 36.41 192.56 37.8 192.56 82.4 173.09 101.84 85.43 101.84 82.96 99.38 78.82 99.38 83.62 104.18 175.56 104.18 194.84 84.9 194.84 43.4 197.34 40.9 197.34 14.43 183.81 0.9"/></g></g></svg>