<svg xmlns="http://www.w3.org/2000/svg" viewBox="0 0 147 55.5"><defs><style>.cls-1{fill:#33b5e5;}</style></defs><title>Asset 21</title><g id="Layer_2" data-name="Layer 2"><g id="Layer_6" data-name="Layer 6"><polygon class="cls-1" points="125 9 123 9 125.44 11.44 127.44 11.44 125 9"/><polygon class="cls-1" points="143.97 27.97 143.97 29.97 146 32 146 30 143.97 27.97"/><polygon class="cls-1" points="143.97 24.97 143.97 26.97 146 29 146 27 143.97 24.97"/><polygon class="cls-1" points="128 9 126 9 128.44 11.44 130.44 11.44 128 9"/><polygon class="cls-1" points="131 9 129 9 131.44 11.44 133.44 11.44 131 9"/><polygon class="cls-1" points="143.97 21.97 143.97 23.97 146 26 146 24 143.97 21.97"/><polygon class="cls-1" points="134 9 132 9 134.44 11.44 136.44 11.44 134 9"/><polygon class="cls-1" points="137.44 11.44 140.41 11.44 143.97 15 143.97 17.97 146 20 146 14 141 9 135 9 137.44 11.44"/><polygon class="cls-1" points="143.97 18.97 143.97 20.97 146 23 146 21 143.97 18.97"/><polygon class="cls-1" points="146 42 146 33 143.97 30.97 143.97 47.97 140.47 51.47 97.47 51.47 99.25 53.25 114.75 53.25 117 55.5 141.5 55.5 147 50 147 43 146 42"/><polygon class="cls-1" points="37.47 51.47 6 51.47 2.77 48.23 2.77 43.52 2.25 43 2.25 17.25 3.5 16 3.5 11.5 11 4 49.13 4 56.56 11.44 57.42 11.44 60.44 11.44 124.44 11.44 122 9 58 9 55.22 6.22 51 2 18.78 2 16.78 0 10 0 0 10 0 21.13 0.88 22 0.88 51.13 3 53.25 39.25 53.25 37.47 51.47"/></g></g></svg>