<svg xmlns="http://www.w3.org/2000/svg" viewBox="0 0 114 149"><defs><style>.cls-1{fill:#33b5e5;}</style></defs><title>Asset 26</title><g id="Layer_2" data-name="Layer 2"><g id="Layer_7_copy" data-name="Layer 7 copy"><polygon class="cls-1" points="31 35 33 35 35 33 33 33 31 35"/><polygon class="cls-1" points="28 35 30 35 32 33 30 33 28 35"/><polygon class="cls-1" points="25 35 27 35 29 33 27 33 25 35"/><polygon class="cls-1" points="22 35 24 35 26 33 24 33 22 35"/><polygon class="cls-1" points="19 35 21 35 23 33 21 33 19 35"/><polygon class="cls-1" points="16 35 18 35 20 33 18 33 16 35"/><polygon class="cls-1" points="13 35 15 35 17 33 15 33 13 35"/><polygon class="cls-1" points="10 35 12 35 14 33 12 33 10 35"/><polygon class="cls-1" points="7 35 9 35 11 33 9 33 7 35"/><polygon class="cls-1" points="4.5 34.5 5 35 6 35 8 33 6 33 4.5 34.5"/><polygon class="cls-1" points="5 31 3 33 4 34 5.5 32.5 5 32 5 31"/><polygon class="cls-1" points="3 30 3 32 5 30 5 28 3 30"/><polygon class="cls-1" points="3 27 3 29 5 27 5 25 3 27"/><polygon class="cls-1" points="70.5 3 20 3 17 0 5 0 0 5 0 17 3 20 3 26 5 24 5 8 8 5 72.5 5 70.5 3"/><path class="cls-1" d="M112,24V17l-3-3V28l-5,5H36l-2,2h5l-1,1H19l2,2H39l3-3H95l2.5,2.5h12L114,33V26Zm1,7.73L109.74,35H109l4-4Z"/><polygon class="cls-1" points="83 41 81 41 79 43 81 43 83 41"/><polygon class="cls-1" points="86 41 84 41 82 43 84 43 86 41"/><polygon class="cls-1" points="89 41 87 41 85 43 87 43 89 41"/><polygon class="cls-1" points="92 41 90 41 88 43 90 43 92 41"/><polygon class="cls-1" points="95 41 93 41 91 43 93 43 95 41"/><polygon class="cls-1" points="98 41 96 41 94 43 96 43 98 41"/><polygon class="cls-1" points="101 41 99 41 97 43 99 43 101 41"/><polygon class="cls-1" points="104 41 102 41 100 43 102 43 104 41"/><polygon class="cls-1" points="107 41 105 41 103 43 105 43 107 41"/><polygon class="cls-1" points="109.5 41.5 109 41 108 41 106 43 108 43 109.5 41.5"/><polygon class="cls-1" points="109 45 111 43 110 42 108.5 43.5 109 44 109 45"/><polygon class="cls-1" points="111 46 111 44 109 46 109 48 111 46"/><polygon class="cls-1" points="111 49 111 47 109 49 109 51 111 49"/><polygon class="cls-1" points="43.5 73 94 73 97 76 109 76 114 71 114 59 111 56 111 50 109 52 109 68 106 71 41.5 71 43.5 73"/><path class="cls-1" d="M2,52v7l3,3V48l5-5H78l2-2H75l1-1H95l-2-2H75l-3,3H19l-2.5-2.5H4.5L0,43v7ZM1,44.27,4.26,41H5L1,45Z"/><polygon class="cls-1" points="31 108 33 108 35 106 33 106 31 108"/><polygon class="cls-1" points="28 108 30 108 32 106 30 106 28 108"/><polygon class="cls-1" points="25 108 27 108 29 106 27 106 25 108"/><polygon class="cls-1" points="22 108 24 108 26 106 24 106 22 108"/><polygon class="cls-1" points="19 108 21 108 23 106 21 106 19 108"/><polygon class="cls-1" points="16 108 18 108 20 106 18 106 16 108"/><polygon class="cls-1" points="13 108 15 108 17 106 15 106 13 108"/><polygon class="cls-1" points="10 108 12 108 14 106 12 106 10 108"/><polygon class="cls-1" points="7 108 9 108 11 106 9 106 7 108"/><polygon class="cls-1" points="4.5 107.5 5 108 6 108 8 106 6 106 4.5 107.5"/><polygon class="cls-1" points="5 104 3 106 4 107 5.5 105.5 5 105 5 104"/><polygon class="cls-1" points="3 103 3 105 5 103 5 101 3 103"/><polygon class="cls-1" points="3 100 3 102 5 100 5 98 3 100"/><polygon class="cls-1" points="70.5 76 20 76 17 73 5 73 0 78 0 90 3 93 3 99 5 97 5 81 8 78 72.5 78 70.5 76"/><path class="cls-1" d="M112,97V90l-3-3v14l-5,5H36l-2,2h5l-1,1H19l2,2H39l3-3H95l2.5,2.5h12L114,106V99Zm1,7.73L109.74,108H109l4-4Z"/><polygon class="cls-1" points="83 114 81 114 79 116 81 116 83 114"/><polygon class="cls-1" points="86 114 84 114 82 116 84 116 86 114"/><polygon class="cls-1" points="89 114 87 114 85 116 87 116 89 114"/><polygon class="cls-1" points="92 114 90 114 88 116 90 116 92 114"/><polygon class="cls-1" points="95 114 93 114 91 116 93 116 95 114"/><polygon class="cls-1" points="98 114 96 114 94 116 96 116 98 114"/><polygon class="cls-1" points="101 114 99 114 97 116 99 116 101 114"/><polygon class="cls-1" points="104 114 102 114 100 116 102 116 104 114"/><polygon class="cls-1" points="107 114 105 114 103 116 105 116 107 114"/><polygon class="cls-1" points="109.5 114.5 109 114 108 114 106 116 108 116 109.5 114.5"/><polygon class="cls-1" points="109 118 111 116 110 115 108.5 116.5 109 117 109 118"/><polygon class="cls-1" points="111 119 111 117 109 119 109 121 111 119"/><polygon class="cls-1" points="111 122 111 120 109 122 109 124 111 122"/><polygon class="cls-1" points="43.5 146 94 146 97 149 109 149 114 144 114 132 111 129 111 123 109 125 109 141 106 144 41.5 144 43.5 146"/><path class="cls-1" d="M2,125v7l3,3V121l5-5H78l2-2H75l1-1H95l-2-2H75l-3,3H19l-2.5-2.5H4.5L0,116v7Zm-1-7.73L4.26,114H5l-4,4Z"/></g></g></svg>