<svg xmlns="http://www.w3.org/2000/svg" viewBox="0 0 208.5 116"><defs><style>.cls-1{fill:#33b5e5;}.cls-2{fill:#3fa9f5;}</style></defs><title>Asset 2</title><g id="Layer_2" data-name="Layer 2"><g id="Layer_4" data-name="Layer 4"><polygon class="cls-1" points="184 114 156 114 158 116 182 116 184 114"/><polygon class="cls-1" points="5 37 5 32.5 2 35.5 2 40 5 37"/><polygon class="cls-1" points="2 32 5 29 5 24.5 2 27.5 2 32"/><polygon class="cls-1" points="27 7 31.63 2.38 27.13 2.38 22.5 7 27 7"/><polygon class="cls-1" points="35 7 39.63 2.38 35.13 2.38 30.5 7 35 7"/><polygon class="cls-1" points="5 13 11 7 19 7 23.63 2.38 10.63 2.38 2.06 10.94 2 11 2 24 5 21 5 13"/><polygon class="cls-2" points="204 71 204 59.58 204 55.5 204 33 206 31 206 18.5 187.5 0 148 0 145.63 2.38 43.13 2.38 38.5 7 153.5 7 155 8.5 186.5 8.5 200 22 200 73.69 201 74.69 201 86 192.5 94.5 199.5 94.5 198 96 191 96 189.5 97.5 196.5 97.5 193 101 186 101 181 106 153 106 150 103 13 103 5 95 5 40.5 2 43.5 2 70.75 0 72.75 0 98 10.5 108.5 44.5 108.5 47 106 148 106 151 109 126 109 130 113 155 113 167.38 113 185 113 208.5 89.5 208.5 75.5 204 71"/><polygon class="cls-2" points="124 113 128 113 124 109 120 109 124 113"/><polygon class="cls-2" points="112 109 107 109 111 113 116 113 112 109"/><polygon class="cls-2" points="118 113 122 113 118 109 114 109 118 113"/></g></g></svg>