<svg xmlns="http://www.w3.org/2000/svg" viewBox="0 0 99.5 54.56"><defs><style>.cls-1{fill:#33b5e5;}</style></defs><title>Asset 2</title><g id="Layer_2" data-name="Layer 2"><g id="Layer_3" data-name="Layer 3"><polygon class="cls-1" points="35.47 49.47 39.13 53.13 40.13 53.13 36.47 49.47 35.47 49.47"/><polygon class="cls-1" points="94 1 87 1 86 2 90 2 91 3 85 3 82 3 41 3 40 2 25 2 23 0 9 0 0 9 0 18 2.88 20.88 2.75 35 1.72 36 1.72 50.28 6 54.56 13.56 54.56 15 53.13 37.13 53.13 38.13 53.13 34.47 49.47 33.47 49.47 8 49.47 5.27 46.73 5.27 41 3.98 39.71 4 8.63 8.69 3.94 41.85 3.94 42 4 41.94 3.94 76.56 3.94 78.31 5.69 93 5.69 95.66 8.34 95.66 18 97.11 19.45 97.11 41.75 87.93 50.93 43 50.93 41.53 49.47 39.47 49.47 43.13 53.13 88.13 53.13 98.25 43 98.25 22.25 99.5 21 99.5 6.5 94 1"/><polygon class="cls-1" points="37.47 49.47 41.13 53.13 42.13 53.13 38.47 49.47 37.47 49.47"/><polygon class="cls-1" points="85 2 86 1 85 1 84 2 85 2"/><polygon class="cls-1" points="83 2 84 1 83 1 82 2 83 2"/><polygon class="cls-1" points="82 1 81 1 80 2 81 2 82 1"/></g></g></svg>