<svg xmlns="http://www.w3.org/2000/svg" viewBox="0 0 179 171"><defs><style>.cls-1{fill:#33b5e5;}</style></defs><title>Asset 3</title><g id="Layer_2" data-name="Layer 2"><g id="Layer_5" data-name="Layer 5"><polygon class="cls-1" points="11.23 32.77 5.8 38.2 5.82 44.18 11.23 38.77 11.23 32.77"/><polygon class="cls-1" points="11 43.5 5.83 48.67 5.85 55.9 11 50.75 11 43.5"/><polygon class="cls-1" points="11 26 5.78 31.22 5.79 35.21 11 30 11 26"/><path class="cls-1" d="M168,128.17V143l-3,3V131.17l-2.92,2.91V149l-12,12H28.46L11,143.77V60.5L5.88,65.62,6,106l-3-3V68.5L.06,71.44,0,71.5V153l18,18H46l4.38-4.37H162l12-12V122.17ZM6,138l-3-3V125l3,3Zm0-16-3-3V109l3,3Z"/><polygon class="cls-1" points="161 0 134 0 132.38 1.63 157.38 1.63 166 10.25 163.75 10.25 157 3.5 23 3.5 5.75 20.75 5.78 29.23 27 8 156.67 8 170.17 21.5 170.17 57.42 174 53.58 174 47 179 42 179 18 161 0"/></g></g></svg>