<svg xmlns="http://www.w3.org/2000/svg" viewBox="0 0 101 102.33"><defs><style>.cls-1{fill:#33b5e5;}</style></defs><title>Asset 20</title><g id="Layer_2" data-name="Layer 2"><g id="Layer_5_copy" data-name="Layer 5 copy"><polygon class="cls-1" points="81.64 3.24 78.44 0.03 74.91 0.04 78.1 3.24 81.64 3.24"/><polygon class="cls-1" points="75.31 3.1 72.25 0.05 67.98 0.06 71.03 3.1 75.31 3.1"/><polygon class="cls-1" points="85.64 3.1 82.56 0.02 80.2 0.03 83.28 3.1 85.64 3.1"/><polygon class="cls-1" points="12.77 95.83 11 94.06 16.19 94.06 14.75 92.62 10 92.6 6 88.6 5.92 13.31 16.08 3.1 46.23 3.1 43.21 0.08 15.52 0.08 0 15.6 0 23.77 2.58 26.36 2.58 92.29 8.03 97.73 27.2 97.73 25.3 95.83 12.77 95.83"/><polygon class="cls-1" points="19.77 92.64 16.26 92.63 17.69 94.06 21.19 94.06 19.77 92.64"/><polygon class="cls-1" points="100.04 74.79 100.04 89.56 94.95 94.65 94.95 93.32 98.93 89.33 98.93 30.17 100.87 28.24 100.87 19.74 98.93 17.8 98.93 10.19 88.74 0 83.74 0.01 96.28 12.55 96.28 89.14 88.3 97.11 67.09 97.11 68.88 98.9 79.7 98.9 83.13 102.33 89.4 102.33 101 90.73 101 75.75 100.04 74.79"/></g></g></svg>