<svg xmlns="http://www.w3.org/2000/svg" viewBox="0 0 193.06 54.84"><defs><style>.cls-1{fill:#33b5e5;}</style></defs><title>Asset 14box1B</title><g id="Layer_2" data-name="Layer 2"><g id="Layer_3" data-name="Layer 3"><polygon class="cls-1" points="67.49 44.65 74.81 51.97 76.81 51.97 69.49 44.65 67.49 44.65"/><polygon class="cls-1" points="190.78 29.22 172.42 47.58 82.56 47.58 79.63 44.65 75.49 44.65 82.81 51.97 172.81 51.97 193.06 31.72 193.06 0 190.78 0 190.78 29.22"/><polygon class="cls-1" points="2.06 15.72 0 17.72 0 46.28 8.56 54.84 23.69 54.84 26.56 51.97 70.81 51.97 72.81 51.97 65.49 44.65 63.49 44.65 12.56 44.65 7.1 39.18 7.1 27.72 4.52 25.14 4.54 0 2.2 0 2.06 15.72"/><polygon class="cls-1" points="71.49 44.65 78.81 51.97 80.81 51.97 73.49 44.65 71.49 44.65"/></g></g></svg>