<svg xmlns="http://www.w3.org/2000/svg" viewBox="0 0 99.75 104.25"><defs><style>.cls-1{fill:#33b5e5;}</style></defs><title>Asset 12</title><g id="Layer_2" data-name="Layer 2"><g id="Layer_3" data-name="Layer 3"><polygon class="cls-1" points="70.75 2 72.75 0 70.75 0 68.75 2 70.75 2"/><polygon class="cls-1" points="66.75 2 68.75 0 66.75 0 64.75 2 66.75 2"/><polygon class="cls-1" points="64.75 0 62.75 0 60.75 2 62.75 2 64.75 0"/><polygon class="cls-1" points="0 99.86 76.61 99.86 94.97 81.5 94.97 36.91 92.06 34 92.06 14.69 86.75 9.38 57.38 9.38 53.88 5.88 0 5.88 0 4 64.75 4 70.75 4 82.75 4 80.75 2 72.75 2 74.75 0 88.75 0 99.75 11 99.75 40 97.25 42.5 97.25 84 77 104.25 0 104.25 0 99.86"/></g></g></svg>