<svg width="84" height="71" viewBox="0 0 84 71" version="1.1" xmlns="http://www.w3.org/2000/svg" xmlns:xlink="http://www.w3.org/1999/xlink">
<title>crl2</title>
<desc>Created using Figma</desc>
<g id="Canvas" transform="translate(-117 177)">
<g id="crl2">
<g id="align-grid">
</g>
<g id="Vector">
<use xlink:href="#path0_fill" transform="translate(131 -165)" fill="#33B5E5"/>
<use xlink:href="#path1_fill" transform="translate(131 -165)" fill="#33B5E5"/>
<use xlink:href="#path2_fill" transform="translate(131 -165)" fill="#33B5E5"/>
<use xlink:href="#path3_fill" transform="translate(131 -165)" fill="#33B5E5"/>
</g>
</g>
</g>
<defs>
<path id="path0_fill" d="M 4 33L 0 37L 0 45L 4 41L 4 33Z"/>
<path id="path1_fill" d="M 4 45L 0 49L 0 59L 4 55L 4 45Z"/>
<path id="path2_fill" d="M 4 26L 0 30L 0 34L 4 30L 4 26Z"/>
<path id="path3_fill" d="M 0 18L 18 0L 50 0L 52 2L 66 2L 70 6L 22 6L 0 28L 0 18Z"/>
</defs>
</svg>
