<svg width="66" height="66" viewBox="0 0 66 66" version="1.1" xmlns="http://www.w3.org/2000/svg" xmlns:xlink="http://www.w3.org/1999/xlink">
<title>crs1</title>
<desc>Created using Figma</desc>
<g id="Canvas" transform="translate(203 513)">
<g id="crs1">
<g id="align-grid">
</g>
<g id="Vector">
<use xlink:href="#path0_fill" transform="matrix(1 1.22465e-16 -1.22465e-16 1 -189 -499)" fill="#33B5E5"/>
<use xlink:href="#path1_fill" transform="matrix(1 1.22465e-16 -1.22465e-16 1 -189 -499)" fill="#33B5E5"/>
<use xlink:href="#path2_fill" transform="matrix(1 1.22465e-16 -1.22465e-16 1 -189 -499)" fill="#33B5E5"/>
<use xlink:href="#path3_fill" transform="matrix(1 1.22465e-16 -1.22465e-16 1 -189 -499)" fill="#33B5E5"/>
<use xlink:href="#path4_fill" transform="matrix(1 1.22465e-16 -1.22465e-16 1 -189 -499)" fill="#33B5E5"/>
<use xlink:href="#path5_fill" transform="matrix(1 1.22465e-16 -1.22465e-16 1 -189 -499)" fill="#33B5E5"/>
<use xlink:href="#path6_fill" transform="matrix(1 1.22465e-16 -1.22465e-16 1 -189 -499)" fill="#33B5E5"/>
<use xlink:href="#path7_fill" transform="matrix(1 1.22465e-16 -1.22465e-16 1 -189 -499)" fill="#33B5E5"/>
<use xlink:href="#path8_fill" transform="matrix(1 1.22465e-16 -1.22465e-16 1 -189 -499)" fill="#33B5E5"/>
<use xlink:href="#path9_fill" transform="matrix(1 1.22465e-16 -1.22465e-16 1 -189 -499)" fill="#33B5E5"/>
<use xlink:href="#path10_fill" transform="matrix(1 1.22465e-16 -1.22465e-16 1 -189 -499)" fill="#33B5E5"/>
</g>
</g>
</g>
<defs>
<path id="path0_fill" d="M 4.00001 37L 4.00001 41L 5.72205e-06 45L 0 41L 4.00001 37Z"/>
<path id="path1_fill" d="M 4.00001 31L 4.00001 35L 5.72205e-06 39L 5.72205e-06 35L 4.00001 31Z"/>
<path id="path2_fill" d="M 4.00001 25L 4.00001 29L 0 33L 0 29L 4.00001 25Z"/>
<path id="path3_fill" d="M 17 4.00001L 11 4.00001L 4.00001 11L 4.00001 17L 5.72205e-06 21L 5.72205e-06 9.00001L 9.00001 5.72205e-06L 21 5.72205e-06L 17 4.00001Z"/>
<path id="path4_fill" d="M 4.00001 19L 4.00001 23L 5.72205e-06 27L 0 23L 4.00001 19Z"/>
<path id="path5_fill" d="M 37 4.00001L 41 4.00001L 45 5.72205e-06L 41 0L 37 4.00001Z"/>
<path id="path6_fill" d="M 31 4.00001L 35 4.00001L 39 5.72205e-06L 35 5.72205e-06L 31 4.00001Z"/>
<path id="path7_fill" d="M 25 4.00001L 29 4.00001L 33 0L 29 0L 25 4.00001Z"/>
<path id="path8_fill" d="M 19 4.00001L 23 4.00001L 27 5.72205e-06L 23 0L 19 4.00001Z"/>
<path id="path9_fill" d="M 4.00001 43L 1.33514e-05 47L 1.33514e-05 51L 4.00001 47L 4.00001 43Z"/>
<path id="path10_fill" d="M 47 5.72205e-06L 43 4.00001L 47 4.00001L 51 5.72205e-06L 47 5.72205e-06Z"/>
</defs>
</svg>
